<?xml version="1.0" encoding="UTF-8" standalone="no"?><!DOCTYPE svg PUBLIC "-//W3C//DTD SVG 1.1//EN" "http://www.w3.org/Graphics/SVG/1.1/DTD/svg11.dtd"><svg width="100%" height="100%" viewBox="0 0 134 134" version="1.1" xmlns="http://www.w3.org/2000/svg" xmlns:xlink="http://www.w3.org/1999/xlink" xml:space="preserve" xmlns:serif="http://www.serif.com/" style="fill-rule:evenodd;clip-rule:evenodd;stroke-linejoin:round;stroke-miterlimit:2;"><g id="Background"><path d="M133.333,33.333l0,66.667c0,18.397 -14.936,33.333 -33.333,33.333l-66.667,0c-18.397,0 -33.333,-14.936 -33.333,-33.333l0,-66.667c0,-18.397 14.936,-33.333 33.333,-33.333l66.667,0c18.397,0 33.333,14.936 33.333,33.333Z"/><path id="Path-1" serif:id="Path 1" d="M88.002,43.258c0.277,-0.023 1.553,-0.052 2.835,-0.064c1.282,-0.012 2.926,0.036 3.653,0.108c0.728,0.072 1.805,0.217 2.394,0.322c0.589,0.106 1.836,0.384 2.772,0.619c0.935,0.235 2.268,0.63 2.961,0.879c0.693,0.249 2.11,0.872 3.15,1.385c1.039,0.513 2.457,1.311 3.15,1.773c0.693,0.462 1.742,1.225 2.331,1.695c0.589,0.47 1.694,1.501 2.457,2.289c0.762,0.789 1.754,1.959 2.205,2.6c0.45,0.641 1.116,1.717 1.479,2.391c0.363,0.674 0.817,1.607 1.008,2.074c0.191,0.467 0.319,0.871 0.285,0.899c-0.035,0.028 -1.083,0.261 -2.331,0.517c-1.247,0.256 -4.365,0.915 -6.929,1.464c-2.564,0.549 -4.704,0.998 -4.756,0.997c-0.052,-0.001 -0.094,-0.993 -0.094,-4.411l-0.409,-0.206c-0.225,-0.113 -2.479,-1.398 -5.008,-2.856c-2.529,-1.458 -5.364,-3.094 -6.299,-3.638c-0.935,-0.543 -1.772,-0.987 -1.858,-0.987c-0.087,0.001 -0.682,0.305 -1.323,0.677c-0.641,0.372 -1.959,1.132 -2.929,1.689c-0.97,0.557 -3.209,1.846 -4.976,2.864c-1.767,1.019 -3.453,1.988 -4.283,2.456l0,15.496l6.393,3.638c3.516,2.001 6.564,3.723 6.771,3.827c0.365,0.182 0.411,0.17 1.386,-0.379c0.554,-0.312 1.122,-0.631 1.261,-0.709c0.139,-0.078 2.733,-1.558 11.274,-6.44l-0,-2.425c-0,-1.334 0.028,-2.425 0.063,-2.425c0.035,0 2.061,0.423 4.504,0.941c2.442,0.517 5.575,1.173 6.96,1.456c1.386,0.283 2.561,0.554 2.611,0.603c0.05,0.048 -0.141,0.768 -0.424,1.599c-0.283,0.831 -0.813,2.107 -1.178,2.835c-0.365,0.728 -1.077,1.946 -1.584,2.709c-0.673,1.013 -1.38,1.845 -2.63,3.092c-1.283,1.281 -2.086,1.957 -3.221,2.714c-0.831,0.555 -2.135,1.325 -2.898,1.712c-0.762,0.387 -1.896,0.906 -2.52,1.153c-0.624,0.247 -1.757,0.616 -2.52,0.821c-0.762,0.205 -1.698,0.437 -2.079,0.518c-0.381,0.08 -1.288,0.231 -2.016,0.335c-0.728,0.104 -2.57,0.221 -4.094,0.26c-1.603,0.041 -3.515,0.013 -4.535,-0.068c-0.97,-0.077 -2.472,-0.26 -3.338,-0.406c-0.866,-0.147 -2.255,-0.454 -3.087,-0.682c-0.831,-0.228 -2.05,-0.624 -2.709,-0.88c-0.658,-0.256 -1.792,-0.769 -2.52,-1.139c-0.728,-0.371 -1.918,-1.073 -2.646,-1.56c-0.728,-0.488 -1.887,-1.384 -2.577,-1.991c-0.69,-0.608 -1.617,-1.53 -2.06,-2.05c-0.443,-0.52 -1.203,-1.54 -1.69,-2.268c-0.487,-0.728 -1.084,-1.72 -1.327,-2.205c-0.243,-0.485 -0.664,-1.449 -0.936,-2.142c-0.272,-0.693 -0.656,-1.883 -0.854,-2.646c-0.198,-0.762 -0.427,-1.924 -0.51,-2.583c-0.097,-0.768 -0.128,-2.19 -0.088,-3.968c0.054,-2.384 0.107,-2.957 0.379,-4.094c0.174,-0.728 0.467,-1.776 0.65,-2.331c0.184,-0.554 0.647,-1.66 1.029,-2.457c0.382,-0.797 1.048,-1.987 1.48,-2.646c0.431,-0.658 1.207,-1.676 1.723,-2.261c0.516,-0.585 1.42,-1.487 2.009,-2.003c0.589,-0.516 1.751,-1.39 2.583,-1.942c0.831,-0.552 2.192,-1.332 3.024,-1.733c0.831,-0.401 2.107,-0.936 2.835,-1.188c0.728,-0.252 1.748,-0.567 2.268,-0.698c0.52,-0.132 1.37,-0.324 1.89,-0.428c0.52,-0.104 1.398,-0.249 1.953,-0.322c0.554,-0.073 1.235,-0.151 1.512,-0.174Zm-73.383,45.143l-0,-43.967l15.811,0.008l3.653,4.232c2.009,2.327 4.052,4.692 4.54,5.256c0.488,0.563 2.16,2.502 3.716,4.308c1.556,1.806 4.044,4.669 5.528,6.362c1.484,1.693 2.93,3.334 3.213,3.645c0.283,0.312 0.737,0.822 1.499,1.701l-0.292,-0.504c-0.16,-0.277 -1.445,-2.233 -5.419,-8.189l0.065,-16.755l17.687,-0.065l0.013,8.946l-0.426,0.85c-0.234,0.468 -0.625,1.332 -0.869,1.921c-0.244,0.589 -0.615,1.666 -0.824,2.394c-0.21,0.728 -0.494,1.861 -0.632,2.52c-0.138,0.658 -0.321,1.934 -0.407,2.835c-0.094,0.987 -0.124,2.289 -0.076,3.275c0.044,0.901 0.168,2.233 0.277,2.961c0.109,0.728 0.359,1.946 0.556,2.709c0.197,0.762 0.57,1.953 0.829,2.646c0.259,0.693 0.717,1.77 1.566,3.527l0.006,9.637l-5.89,0c-3.239,0 -6.757,-0.042 -9.746,-0.189l-1.158,-1.376c-0.637,-0.757 -2.028,-2.401 -3.092,-3.653c-1.064,-1.253 -2.566,-3.009 -3.338,-3.904c-0.773,-0.895 -2.03,-2.34 -2.795,-3.212c-0.765,-0.872 -1.927,-2.212 -2.583,-2.977c-0.656,-0.765 -2.071,-2.393 -5.097,-5.845l-0.126,20.842l-16.188,0.063Zm76.023,-35.662c0.066,-0.064 0.193,-0.117 0.283,-0.117c0.09,0 0.603,0.246 1.14,0.547c0.537,0.301 2.932,1.67 5.323,3.043c2.39,1.373 4.686,2.701 5.858,3.408l0,3.888l-1.449,0.287c-0.797,0.158 -1.461,0.274 -1.476,0.258c-0.015,-0.016 -0.043,-0.643 -0.063,-1.394c-0.02,-0.751 -0.093,-1.41 -0.162,-1.465c-0.069,-0.055 -2.082,-1.22 -4.472,-2.589c-2.39,-1.369 -4.403,-2.513 -4.472,-2.543c-0.069,-0.03 -0.58,0.195 -1.134,0.5c-0.554,0.305 -2.34,1.319 -3.968,2.253c-1.628,0.934 -3.26,1.865 -4.291,2.438l0.016,10.582l3.669,2.079c2.018,1.143 4.099,2.317 5.583,3.138l1.071,-0.605c0.589,-0.333 2.601,-1.471 4.472,-2.529c1.871,-1.058 3.475,-1.988 3.565,-2.066c0.118,-0.103 0.162,-0.585 0.157,-1.749c-0.003,-0.883 0.009,-1.607 0.026,-1.608c0.017,-0.001 0.598,0.114 1.291,0.255c0.693,0.141 1.359,0.284 1.48,0.317c0.199,0.055 0.221,0.272 0.225,4.407l-1.609,0.897c-0.885,0.494 -3.65,2.071 -10.679,6.115l-0.504,-0.287c-0.277,-0.158 -2.998,-1.718 -11.59,-6.647l-0.063,-13.999l1.48,-0.837c0.814,-0.46 3.096,-1.774 5.071,-2.92c1.975,-1.146 3.931,-2.275 4.346,-2.511c0.416,-0.235 0.81,-0.48 0.876,-0.545Zm-0.561,5.006c0.45,-0.252 0.876,-0.459 0.945,-0.462c0.069,-0.002 1.798,0.951 3.842,2.119c2.044,1.168 3.844,2.204 4.284,2.479l0.009,9.323l-4.036,2.299c-2.22,1.265 -4.079,2.299 -4.131,2.298c-0.052,-0.001 -0.831,-0.422 -1.732,-0.936c-0.901,-0.514 -2.545,-1.447 -3.653,-2.073c-1.109,-0.626 -2.172,-1.226 -2.709,-1.526l0.063,-9.479l0.882,-0.501c0.485,-0.276 1.109,-0.628 1.386,-0.784c0.277,-0.155 1.298,-0.737 2.268,-1.292c0.97,-0.555 2.132,-1.215 2.583,-1.467Zm0.051,3.713c-0.478,0.282 -1.521,0.877 -2.318,1.321c-0.797,0.444 -1.491,0.807 -1.543,0.806c-0.052,-0.001 -0.094,1.301 -0.094,2.895l0,2.898c3.271,1.842 4.362,2.446 4.535,2.529c0.289,0.139 0.516,0.038 2.744,-1.22l2.43,-1.372l-0.009,-5.606c-1.318,-0.745 -2.239,-1.263 -2.898,-1.633c-0.658,-0.369 -1.372,-0.775 -1.587,-0.901l-0.39,-0.23l-0.869,0.513Z" style="fill:#f2f2f2;"/></g></svg>