<?xml version="1.0" encoding="UTF-8" standalone="no"?><!DOCTYPE svg PUBLIC "-//W3C//DTD SVG 1.1//EN" "http://www.w3.org/Graphics/SVG/1.1/DTD/svg11.dtd"><svg width="100%" height="100%" viewBox="0 0 134 134" version="1.1" xmlns="http://www.w3.org/2000/svg" xmlns:xlink="http://www.w3.org/1999/xlink" xml:space="preserve" xmlns:serif="http://www.serif.com/" style="fill-rule:evenodd;clip-rule:evenodd;stroke-linejoin:round;stroke-miterlimit:2;"><g id="Background"><rect id="Path-0" serif:id="Path 0" x="-8.364" y="-0" width="150.062" height="133.333" style="fill:#020202;fill-rule:nonzero;"/><path id="Path-1" serif:id="Path 1" d="M91.943,38.868c0.329,-0.027 1.841,-0.061 3.361,-0.076c1.52,-0.014 3.47,0.043 4.333,0.128c0.863,0.085 2.14,0.257 2.839,0.382c0.698,0.125 2.177,0.456 3.287,0.734c1.109,0.278 2.689,0.747 3.511,1.042c0.822,0.295 2.502,1.034 3.735,1.643c1.233,0.609 2.913,1.555 3.735,2.102c0.822,0.548 2.065,1.452 2.764,2.01c0.698,0.558 2.009,1.78 2.913,2.715c0.904,0.935 2.08,2.323 2.614,3.083c0.534,0.76 1.323,2.036 1.754,2.836c0.431,0.799 0.968,1.906 1.195,2.459c0.227,0.553 0.379,1.033 0.338,1.066c-0.041,0.033 -1.285,0.309 -2.764,0.613c-1.479,0.304 -5.177,1.085 -8.217,1.736c-3.04,0.651 -5.578,1.183 -5.64,1.182c-0.062,-0.001 -0.112,-1.178 -0.112,-5.23l-0.486,-0.244c-0.267,-0.134 -2.939,-1.658 -5.939,-3.387c-2.999,-1.728 -6.361,-3.67 -7.47,-4.314c-1.109,-0.644 -2.101,-1.171 -2.204,-1.17c-0.103,0.001 -0.809,0.362 -1.569,0.803c-0.76,0.441 -2.323,1.342 -3.474,2.003c-1.15,0.66 -3.806,2.189 -5.901,3.397c-2.095,1.208 -4.095,2.357 -5.08,2.912l0,18.376l7.582,4.315c4.17,2.373 7.784,4.415 8.03,4.538c0.433,0.216 0.488,0.201 1.643,-0.45c0.657,-0.37 1.331,-0.748 1.496,-0.84c0.165,-0.092 3.241,-1.848 13.37,-7.637l-0,-2.876c-0,-1.582 0.033,-2.876 0.074,-2.876c0.041,0 2.445,0.502 5.341,1.116c2.896,0.614 6.611,1.39 8.254,1.726c1.643,0.336 3.037,0.658 3.096,0.715c0.059,0.057 -0.167,0.91 -0.503,1.896c-0.336,0.986 -0.964,2.499 -1.397,3.361c-0.432,0.863 -1.278,2.308 -1.878,3.212c-0.798,1.201 -1.637,2.188 -3.119,3.666c-1.522,1.519 -2.473,2.321 -3.819,3.219c-0.986,0.658 -2.532,1.571 -3.436,2.03c-0.904,0.459 -2.248,1.074 -2.988,1.367c-0.74,0.293 -2.084,0.731 -2.988,0.973c-0.904,0.243 -2.013,0.519 -2.465,0.614c-0.452,0.095 -1.528,0.274 -2.39,0.397c-0.863,0.123 -3.048,0.262 -4.855,0.309c-1.901,0.049 -4.169,0.015 -5.378,-0.08c-1.15,-0.091 -2.932,-0.308 -3.959,-0.482c-1.027,-0.174 -2.674,-0.538 -3.66,-0.809c-0.986,-0.27 -2.431,-0.74 -3.212,-1.044c-0.781,-0.304 -2.125,-0.912 -2.988,-1.351c-0.863,-0.439 -2.275,-1.272 -3.137,-1.85c-0.863,-0.578 -2.238,-1.641 -3.057,-2.361c-0.818,-0.721 -1.917,-1.814 -2.442,-2.431c-0.525,-0.616 -1.427,-1.826 -2.004,-2.689c-0.577,-0.863 -1.285,-2.039 -1.574,-2.614c-0.288,-0.575 -0.788,-1.718 -1.11,-2.54c-0.322,-0.822 -0.778,-2.234 -1.012,-3.137c-0.234,-0.904 -0.507,-2.282 -0.605,-3.063c-0.115,-0.911 -0.152,-2.597 -0.105,-4.706c0.064,-2.827 0.127,-3.506 0.449,-4.855c0.206,-0.863 0.553,-2.107 0.771,-2.764c0.218,-0.657 0.767,-1.968 1.221,-2.913c0.453,-0.945 1.243,-2.357 1.755,-3.137c0.512,-0.781 1.431,-1.987 2.043,-2.682c0.612,-0.694 1.684,-1.763 2.383,-2.375c0.698,-0.612 2.077,-1.649 3.063,-2.303c0.986,-0.655 2.6,-1.579 3.586,-2.055c0.986,-0.476 2.499,-1.11 3.361,-1.409c0.863,-0.299 2.073,-0.672 2.689,-0.828c0.616,-0.156 1.625,-0.385 2.241,-0.508c0.616,-0.123 1.658,-0.295 2.316,-0.381c0.657,-0.086 1.464,-0.18 1.793,-0.207Zm-87.025,53.534l0,-52.14l18.75,0.009l4.333,5.018c2.383,2.76 4.806,5.565 5.384,6.233c0.578,0.668 2.562,2.967 4.407,5.109c1.846,2.142 4.796,5.537 6.555,7.545c1.76,2.008 3.474,3.953 3.81,4.323c0.336,0.37 0.874,0.975 1.777,2.017l-0.346,-0.598c-0.19,-0.329 -1.714,-2.648 -6.426,-9.711l0.077,-19.87l20.975,-0.077l0.015,10.609l-0.505,1.008c-0.278,0.555 -0.741,1.58 -1.03,2.278c-0.289,0.698 -0.729,1.976 -0.978,2.839c-0.249,0.863 -0.586,2.207 -0.75,2.988c-0.164,0.781 -0.381,2.293 -0.482,3.361c-0.111,1.17 -0.147,2.714 -0.09,3.884c0.052,1.068 0.2,2.648 0.329,3.511c0.129,0.863 0.426,2.308 0.659,3.212c0.234,0.904 0.676,2.316 0.983,3.137c0.307,0.822 0.851,2.099 1.857,4.183l0.007,11.429l-6.984,0c-3.841,0 -8.013,-0.05 -11.558,-0.224l-1.374,-1.632c-0.755,-0.898 -2.405,-2.847 -3.667,-4.333c-1.261,-1.485 -3.043,-3.569 -3.959,-4.63c-0.916,-1.061 -2.408,-2.775 -3.315,-3.81c-0.907,-1.034 -2.285,-2.623 -3.063,-3.53c-0.778,-0.907 -2.456,-2.838 -6.045,-6.932l-0.149,24.716l-19.198,0.075Zm90.154,-42.291c0.078,-0.076 0.229,-0.139 0.336,-0.139c0.107,0 0.715,0.292 1.352,0.649c0.637,0.357 3.477,1.981 6.312,3.608c2.835,1.628 5.558,3.203 6.947,4.042l0,4.61l-1.718,0.34c-0.945,0.187 -1.732,0.325 -1.75,0.306c-0.018,-0.019 -0.051,-0.763 -0.075,-1.653c-0.023,-0.89 -0.11,-1.672 -0.192,-1.738c-0.082,-0.065 -2.469,-1.447 -5.304,-3.07c-2.835,-1.623 -5.221,-2.98 -5.304,-3.016c-0.082,-0.035 -0.687,0.231 -1.345,0.593c-0.657,0.362 -2.775,1.564 -4.706,2.671c-1.931,1.108 -3.866,2.211 -5.089,2.891l0.019,12.549l4.351,2.465c2.393,1.356 4.861,2.748 6.621,3.721l1.27,-0.717c0.698,-0.395 3.085,-1.744 5.304,-2.999c2.219,-1.255 4.121,-2.358 4.227,-2.45c0.14,-0.122 0.192,-0.694 0.187,-2.074c-0.004,-1.048 0.01,-1.906 0.031,-1.907c0.021,-0.001 0.71,0.135 1.531,0.302c0.822,0.167 1.612,0.336 1.755,0.376c0.236,0.065 0.262,0.323 0.267,5.226l-1.908,1.064c-1.049,0.585 -4.328,2.456 -12.664,7.252l-0.598,-0.34c-0.329,-0.187 -3.556,-2.038 -13.745,-7.883l-0.075,-16.601l1.755,-0.993c0.965,-0.546 3.671,-2.104 6.013,-3.462c2.342,-1.358 4.661,-2.698 5.154,-2.977c0.493,-0.279 0.96,-0.57 1.038,-0.646Zm-0.665,5.936c0.534,-0.298 1.038,-0.545 1.12,-0.548c0.082,-0.003 2.133,1.128 4.557,2.513c2.424,1.385 4.559,2.613 5.081,2.94l0.011,11.055l-4.787,2.727c-2.633,1.5 -4.837,2.726 -4.899,2.725c-0.062,-0.001 -0.986,-0.5 -2.054,-1.109c-1.068,-0.61 -3.018,-1.716 -4.333,-2.458c-1.315,-0.742 -2.575,-1.453 -3.212,-1.81l0.075,-11.241l1.046,-0.594c0.575,-0.327 1.315,-0.745 1.643,-0.929c0.329,-0.184 1.539,-0.873 2.689,-1.532c1.15,-0.658 2.529,-1.441 3.063,-1.74Zm0.06,4.403c-0.567,0.335 -1.804,1.04 -2.749,1.567c-0.945,0.527 -1.768,0.957 -1.83,0.955c-0.062,-0.002 -0.112,1.543 -0.112,3.433l0,3.436c3.879,2.185 5.173,2.9 5.378,2.999c0.343,0.165 0.612,0.045 3.255,-1.447l2.881,-1.627l-0.01,-6.648c-1.563,-0.883 -2.656,-1.498 -3.436,-1.936c-0.781,-0.438 -1.628,-0.919 -1.882,-1.069l-0.463,-0.273l-1.031,0.609Z" style="fill:#f2f2f2;"/></g></svg>